<svg width="305" height="305" viewBox="0 0 305 305" fill="none" xmlns="http://www.w3.org/2000/svg">
<rect width="305" height="305" rx="5" fill="#F3F3F3"/>
<line x1="113" y1="129.164" x2="192.881" y2="129.164" stroke="#D3D3D3" stroke-width="7"/>
<line x1="152.914" y1="168.881" x2="152.914" y2="89" stroke="#D3D3D3" stroke-width="7"/>
<path d="M81.712 213.192C80.144 213.192 78.864 212.896 77.872 212.304C76.888 211.712 76.16 210.844 75.688 209.7C75.224 208.548 74.992 207.136 74.992 205.464V195.144H76.984V204.984C76.984 206.712 77.172 208.06 77.548 209.028C77.932 209.988 78.48 210.664 79.192 211.056C79.912 211.44 80.776 211.632 81.784 211.632C82.72 211.632 83.528 211.432 84.208 211.032C84.888 210.632 85.408 209.952 85.768 208.992C86.136 208.024 86.32 206.688 86.32 204.984V195.168H88.288V205.44C88.288 208.008 87.74 209.944 86.644 211.248C85.556 212.544 83.912 213.192 81.712 213.192ZM92.4574 218.928V199.632H94.2334V201.336L94.4014 201.576V212.16L94.3774 212.424L94.4014 214.632V218.928H92.4574ZM96.9934 213.192C96.1294 213.192 95.3974 213.088 94.7974 212.88C94.1974 212.672 93.8254 212.504 93.6814 212.376L94.4014 211.08C94.6174 211.272 94.9494 211.432 95.3974 211.56C95.8534 211.688 96.4414 211.752 97.1614 211.752C98.0174 211.752 98.7854 211.532 99.4654 211.092C100.145 210.652 100.681 210.016 101.073 209.184C101.473 208.352 101.681 207.344 101.697 206.16C101.713 204.416 101.381 203.12 100.701 202.272C100.021 201.424 99.0814 201 97.8814 201C97.1054 201 96.4134 201.156 95.8054 201.468C95.1974 201.78 94.7294 202.08 94.4014 202.368L94.0894 201.36C94.2814 201.16 94.5574 200.912 94.9174 200.616C95.2774 200.312 95.7414 200.044 96.3094 199.812C96.8854 199.58 97.5854 199.464 98.4094 199.464C99.3214 199.464 100.177 199.684 100.977 200.124C101.785 200.564 102.437 201.26 102.933 202.212C103.437 203.156 103.689 204.384 103.689 205.896C103.689 207.312 103.409 208.568 102.849 209.664C102.297 210.76 101.517 211.624 100.509 212.256C99.5094 212.88 98.3374 213.192 96.9934 213.192ZM107.178 213V193.488H109.146V213H107.178ZM118.493 213.192C117.43 213.192 116.526 213 115.782 212.616C115.038 212.232 114.434 211.708 113.97 211.044C113.506 210.38 113.17 209.62 112.962 208.764C112.754 207.908 112.654 207.008 112.662 206.064C112.686 204.648 112.966 203.448 113.502 202.464C114.046 201.48 114.77 200.736 115.674 200.232C116.586 199.72 117.606 199.464 118.734 199.464C120.126 199.464 121.25 199.788 122.106 200.436C122.97 201.084 123.594 201.944 123.978 203.016C124.37 204.08 124.558 205.24 124.542 206.496C124.518 207.92 124.242 209.132 123.714 210.132C123.194 211.124 122.482 211.884 121.578 212.412C120.674 212.932 119.646 213.192 118.493 213.192ZM118.542 211.8C119.814 211.808 120.798 211.332 121.494 210.372C122.198 209.404 122.55 208.088 122.55 206.424C122.558 205.4 122.426 204.472 122.154 203.64C121.882 202.8 121.462 202.132 120.894 201.636C120.326 201.14 119.598 200.888 118.71 200.88C117.454 200.856 116.466 201.3 115.746 202.212C115.034 203.124 114.67 204.416 114.654 206.088C114.654 207.104 114.79 208.044 115.062 208.908C115.334 209.764 115.754 210.456 116.322 210.984C116.898 211.512 117.638 211.784 118.542 211.8ZM130.875 213.192C130.091 213.192 129.391 213.044 128.775 212.748C128.167 212.452 127.687 212.028 127.335 211.476C126.991 210.916 126.819 210.248 126.819 209.472C126.819 208.592 127.063 207.848 127.551 207.24C128.047 206.624 128.763 206.144 129.699 205.8C130.219 205.6 130.795 205.444 131.427 205.332C132.059 205.212 132.679 205.128 133.287 205.08C133.903 205.032 134.443 205.008 134.907 205.008L135.339 205.56L134.907 206.256C134.587 206.256 134.175 206.276 133.671 206.316C133.167 206.356 132.651 206.424 132.123 206.52C131.603 206.608 131.155 206.728 130.779 206.88C130.107 207.128 129.599 207.448 129.255 207.84C128.911 208.232 128.739 208.728 128.739 209.328C128.739 210.024 128.951 210.6 129.375 211.056C129.799 211.504 130.491 211.728 131.451 211.728C132.019 211.728 132.547 211.652 133.035 211.5C133.531 211.348 133.947 211.18 134.283 210.996C134.619 210.804 134.835 210.656 134.931 210.552L135.363 210.936L135.051 211.728C134.691 212.064 134.143 212.392 133.407 212.712C132.679 213.032 131.835 213.192 130.875 213.192ZM136.851 213H135.027V211.104L134.907 211.08V203.616C134.907 202.592 134.647 201.908 134.127 201.564C133.615 201.22 132.835 201.048 131.787 201.048C131.339 201.048 130.863 201.108 130.359 201.228C129.863 201.34 129.403 201.484 128.979 201.66C128.555 201.836 128.227 202.008 127.995 202.176L127.515 200.784C127.667 200.68 127.983 200.52 128.463 200.304C128.951 200.088 129.531 199.892 130.203 199.716C130.875 199.532 131.571 199.44 132.291 199.44C133.203 199.44 133.999 199.56 134.679 199.8C135.367 200.04 135.899 200.468 136.275 201.084C136.659 201.7 136.851 202.568 136.851 203.688V213ZM149.538 213V211.152L149.442 211.104V201.264L149.514 201.216L149.442 199.104V193.488H151.338V213H149.538ZM145.41 213.192C144.498 213.192 143.638 212.972 142.83 212.532C142.03 212.084 141.378 211.388 140.874 210.444C140.378 209.492 140.13 208.264 140.13 206.76C140.13 205.336 140.406 204.076 140.958 202.98C141.518 201.884 142.298 201.024 143.298 200.4C144.306 199.776 145.482 199.464 146.826 199.464C147.69 199.464 148.43 199.564 149.046 199.764C149.662 199.964 150.042 200.136 150.186 200.28L149.466 201.552C149.25 201.36 148.906 201.2 148.434 201.072C147.97 200.944 147.37 200.88 146.634 200.88C145.786 200.88 145.022 201.1 144.342 201.54C143.67 201.98 143.134 202.62 142.734 203.46C142.342 204.292 142.138 205.304 142.122 206.496C142.098 208.232 142.426 209.528 143.106 210.384C143.794 211.232 144.738 211.656 145.938 211.656C146.722 211.656 147.426 211.496 148.05 211.176C148.674 210.856 149.146 210.56 149.466 210.288L149.778 211.296C149.586 211.488 149.306 211.736 148.938 212.04C148.57 212.336 148.094 212.604 147.51 212.844C146.934 213.076 146.234 213.192 145.41 213.192ZM160.412 213V195.168H162.404V213H160.412ZM167.296 213V199.656H169.048V201.36C169.376 201.096 169.808 200.82 170.344 200.532C170.88 200.236 171.464 199.984 172.096 199.776C172.728 199.568 173.352 199.456 173.968 199.44C174.864 199.424 175.588 199.572 176.14 199.884C176.7 200.188 177.108 200.724 177.364 201.492C177.628 202.26 177.76 203.328 177.76 204.696V213H175.816V204.84C175.816 203.952 175.748 203.228 175.612 202.668C175.484 202.1 175.228 201.688 174.844 201.432C174.468 201.176 173.912 201.064 173.176 201.096C172.592 201.12 171.924 201.288 171.172 201.6C170.428 201.904 169.792 202.272 169.264 202.704V213H167.296ZM177.568 202.536L177.136 201.336C177.464 201.072 177.892 200.796 178.42 200.508C178.948 200.212 179.532 199.964 180.172 199.764C180.812 199.556 181.464 199.448 182.128 199.44C183.072 199.432 183.828 199.596 184.396 199.932C184.972 200.268 185.388 200.828 185.644 201.612C185.908 202.388 186.04 203.44 186.04 204.768V213H184.096V204.864C184.096 204.032 184.032 203.332 183.904 202.764C183.784 202.188 183.528 201.756 183.136 201.468C182.752 201.18 182.168 201.048 181.384 201.072C180.752 201.08 180.084 201.24 179.38 201.552C178.676 201.856 178.072 202.184 177.568 202.536ZM193.36 213.192C192.576 213.192 191.876 213.044 191.26 212.748C190.652 212.452 190.172 212.028 189.82 211.476C189.476 210.916 189.304 210.248 189.304 209.472C189.304 208.592 189.548 207.848 190.036 207.24C190.532 206.624 191.248 206.144 192.184 205.8C192.704 205.6 193.28 205.444 193.912 205.332C194.544 205.212 195.164 205.128 195.772 205.08C196.388 205.032 196.928 205.008 197.392 205.008L197.824 205.56L197.392 206.256C197.072 206.256 196.66 206.276 196.156 206.316C195.652 206.356 195.136 206.424 194.608 206.52C194.088 206.608 193.64 206.728 193.264 206.88C192.592 207.128 192.084 207.448 191.74 207.84C191.396 208.232 191.224 208.728 191.224 209.328C191.224 210.024 191.436 210.6 191.86 211.056C192.284 211.504 192.976 211.728 193.936 211.728C194.504 211.728 195.032 211.652 195.52 211.5C196.016 211.348 196.432 211.18 196.768 210.996C197.104 210.804 197.32 210.656 197.416 210.552L197.848 210.936L197.536 211.728C197.176 212.064 196.628 212.392 195.892 212.712C195.164 213.032 194.32 213.192 193.36 213.192ZM199.336 213H197.512V211.104L197.392 211.08V203.616C197.392 202.592 197.132 201.908 196.612 201.564C196.1 201.22 195.32 201.048 194.272 201.048C193.824 201.048 193.348 201.108 192.844 201.228C192.348 201.34 191.888 201.484 191.464 201.66C191.04 201.836 190.712 202.008 190.48 202.176L190 200.784C190.152 200.68 190.468 200.52 190.948 200.304C191.436 200.088 192.016 199.892 192.688 199.716C193.36 199.532 194.056 199.44 194.776 199.44C195.688 199.44 196.484 199.56 197.164 199.8C197.852 200.04 198.384 200.468 198.76 201.084C199.144 201.7 199.336 202.568 199.336 203.688V213ZM207.996 219.048C206.308 219.048 204.952 218.752 203.928 218.16C202.912 217.568 202.404 216.608 202.404 215.28C202.404 214.776 202.524 214.324 202.764 213.924C203.004 213.524 203.288 213.188 203.616 212.916C203.952 212.644 204.26 212.448 204.54 212.328L205.86 212.52C205.668 212.656 205.452 212.832 205.212 213.048C204.972 213.264 204.764 213.532 204.588 213.852C204.412 214.18 204.324 214.576 204.324 215.04C204.324 215.664 204.46 216.172 204.732 216.564C205.004 216.956 205.416 217.244 205.968 217.428C206.52 217.612 207.22 217.704 208.068 217.704C208.836 217.704 209.564 217.612 210.252 217.428C210.94 217.252 211.5 216.976 211.932 216.6C212.364 216.232 212.58 215.76 212.58 215.184C212.58 214.672 212.468 214.256 212.244 213.936C212.028 213.616 211.66 213.38 211.14 213.228C210.628 213.076 209.932 213 209.052 213H207.252C206.788 213 206.372 212.98 206.004 212.94C205.644 212.9 205.332 212.856 205.068 212.808C204.996 212.792 204.924 212.764 204.852 212.724C204.78 212.676 204.708 212.64 204.636 212.616C204.052 212.424 203.676 212.124 203.508 211.716C203.348 211.308 203.268 210.888 203.268 210.456C203.268 210.144 203.356 209.828 203.532 209.508C203.708 209.18 203.94 208.868 204.228 208.572C204.516 208.268 204.828 208 205.164 207.768L206.412 208.128C206.148 208.248 205.852 208.484 205.524 208.836C205.204 209.188 205.044 209.568 205.044 209.976C205.044 210.536 205.188 210.924 205.476 211.14C205.764 211.356 206.26 211.464 206.964 211.464H209.868C210.82 211.464 211.596 211.556 212.196 211.74C212.796 211.924 213.26 212.176 213.588 212.496C213.916 212.808 214.14 213.16 214.26 213.552C214.388 213.944 214.452 214.352 214.452 214.776C214.452 215.432 214.284 216.024 213.948 216.552C213.62 217.08 213.16 217.528 212.568 217.896C211.976 218.272 211.288 218.556 210.504 218.748C209.728 218.948 208.892 219.048 207.996 219.048ZM207.948 208.536C206.988 208.536 206.12 208.356 205.344 207.996C204.576 207.628 203.964 207.116 203.508 206.46C203.06 205.796 202.836 205.016 202.836 204.12C202.836 203.064 203.068 202.196 203.532 201.516C204.004 200.836 204.632 200.328 205.416 199.992C206.2 199.656 207.068 199.48 208.02 199.464C208.948 199.44 209.808 199.584 210.6 199.896C211.392 200.208 212.028 200.696 212.508 201.36C212.988 202.016 213.228 202.856 213.228 203.88C213.228 204.888 212.992 205.74 212.52 206.436C212.048 207.124 211.412 207.648 210.612 208.008C209.812 208.36 208.924 208.536 207.948 208.536ZM207.972 207.24C208.948 207.24 209.744 206.988 210.36 206.484C210.976 205.98 211.284 205.136 211.284 203.952C211.284 202.88 211 202.084 210.432 201.564C209.872 201.044 209.1 200.784 208.116 200.784C207.54 200.792 206.996 200.892 206.484 201.084C205.98 201.276 205.568 201.608 205.248 202.08C204.936 202.544 204.78 203.192 204.78 204.024C204.78 204.936 205.052 205.7 205.596 206.316C206.14 206.932 206.932 207.24 207.972 207.24ZM211.692 201.24L210.996 200.472C211.18 200.288 211.556 200.112 212.124 199.944C212.692 199.768 213.276 199.68 213.876 199.68H214.98V201.24H211.692ZM222.369 213.192C220.497 213.192 219.061 212.592 218.061 211.392C217.061 210.184 216.561 208.512 216.561 206.376C216.561 205.04 216.793 203.856 217.257 202.824C217.721 201.784 218.397 200.968 219.285 200.376C220.173 199.776 221.257 199.472 222.537 199.464C223.249 199.448 223.893 199.56 224.469 199.8C225.053 200.032 225.553 200.372 225.969 200.82C226.393 201.26 226.721 201.792 226.953 202.416C227.193 203.032 227.321 203.72 227.337 204.48C227.337 204.896 227.333 205.272 227.325 205.608C227.317 205.936 227.289 206.24 227.241 206.52H217.737L217.905 205.2H225.489C225.537 204.384 225.469 203.648 225.285 202.992C225.109 202.336 224.789 201.816 224.325 201.432C223.861 201.048 223.225 200.856 222.417 200.856C221.649 200.856 220.961 201.064 220.353 201.48C219.745 201.888 219.269 202.544 218.925 203.448C218.589 204.352 218.441 205.536 218.481 207C218.521 208.144 218.733 209.06 219.117 209.748C219.501 210.436 220.017 210.936 220.665 211.248C221.313 211.552 222.049 211.704 222.873 211.704C223.281 211.704 223.717 211.652 224.181 211.548C224.653 211.444 225.093 211.316 225.501 211.164C225.917 211.004 226.241 210.848 226.473 210.696L226.881 211.968C226.593 212.208 226.201 212.42 225.705 212.604C225.209 212.788 224.665 212.932 224.073 213.036C223.489 213.14 222.921 213.192 222.369 213.192Z" fill="#333333"/>
</svg>
