<svg width="374" height="374" viewBox="0 0 374 374" fill="none" xmlns="http://www.w3.org/2000/svg">
<mask id="path-1-outside-1_65_865" maskUnits="userSpaceOnUse" x="0" y="0" width="374" height="374" fill="black">
<rect fill="white" width="374" height="374"/>
<path fill-rule="evenodd" clip-rule="evenodd" d="M187 371C288.62 371 371 288.62 371 187C371 85.3796 288.62 3 187 3C85.3796 3 3 85.3796 3 187C3 288.62 85.3796 371 187 371ZM247 192.07L187.5 90L128 192.07H168.7V285H206.3V192.07H247Z"/>
</mask>
<path fill-rule="evenodd" clip-rule="evenodd" d="M187 371C288.62 371 371 288.62 371 187C371 85.3796 288.62 3 187 3C85.3796 3 3 85.3796 3 187C3 288.62 85.3796 371 187 371ZM247 192.07L187.5 90L128 192.07H168.7V285H206.3V192.07H247Z" fill="#F2F2F2"/>
<path d="M187.5 90L190.092 88.4892L187.5 84.043L184.908 88.4892L187.5 90ZM247 192.07V195.07H252.221L249.592 190.559L247 192.07ZM128 192.07L125.408 190.559L122.779 195.07H128V192.07ZM168.7 192.07H171.7V189.07H168.7V192.07ZM168.7 285H165.7V288H168.7V285ZM206.3 285V288H209.3V285H206.3ZM206.3 192.07V189.07H203.3V192.07H206.3ZM368 187C368 286.964 286.964 368 187 368V374C290.277 374 374 290.277 374 187H368ZM187 6C286.964 6 368 87.0365 368 187H374C374 83.7228 290.277 0 187 0V6ZM6 187C6 87.0365 87.0365 6 187 6V0C83.7228 0 0 83.7228 0 187H6ZM187 368C87.0365 368 6 286.964 6 187H0C0 290.277 83.7228 374 187 374V368ZM184.908 91.5108L244.408 193.581L249.592 190.559L190.092 88.4892L184.908 91.5108ZM130.592 193.581L190.092 91.5108L184.908 88.4892L125.408 190.559L130.592 193.581ZM168.7 189.07H128V195.07H168.7V189.07ZM171.7 285V192.07H165.7V285H171.7ZM206.3 282H168.7V288H206.3V282ZM203.3 192.07V285H209.3V192.07H203.3ZM247 189.07H206.3V195.07H247V189.07Z" fill="#073B3A" mask="url(#path-1-outside-1_65_865)"/>
</svg>
