<?xml version="1.0" encoding="UTF-8"?>
<svg id="Layer_2" data-name="Layer 2" xmlns="http://www.w3.org/2000/svg" viewBox="0 0 500 150.08">
  <defs>
    <style>
      .cls-1 {
        font-family: Kinescope, Kinescope;
        font-size: 73px;
      }

      .cls-1, .cls-2 {
        fill: #f2f2f2;
      }
    </style>
  </defs>
  <g>
    <path class="cls-2" d="M5.24,73.56c-.13-.42-.14-.95.15-1.35,9.22-14.87,21.26-25.29,34.96-28.95,7.77-2.08,14.72-.93,16.16,4.95,1.57,6.4-7.2,18.16-21.98,29.45,1.72-.87,3.33-1.56,4.77-1.96,3.95-1.11,6.85-.37,7.63,2.52,1.93,7.49-11.84,22.35-29.27,27.99-1.9.61-2.72.34-2.99-.49-.05-.14-.17-1.02-.26-2.3-.63-9.09,1.68-26.22,4.78-36.38.44-1.58,2.88-3,5.12-3.66,2.09-.62,4.11-.59,4.39.39.06.21.04.44-.11.79-1.82,4.71-3.5,10.84-4.68,16.99,16.31-12.22,24.28-23.8,22.58-30.33-.7-2.68-3.9-3.66-7.29-2.74-11.63,3.16-19.87,12.09-29.96,26.32-.24.31-.52.47-.83.57-1.14.37-2.81-.63-3.19-1.81ZM21.78,100.09c11.92-5.24,17.07-14.07,16.07-17.67-.38-1.33-1.62-1.97-3.73-1.36-1.96.57-4.69,2.2-8,5.33-.2.14-.33.25-.56.32-.82.25-1.71-.24-2.42-.94-.9,5.39-1.42,10.52-1.36,14.33Z"/>
    <path class="cls-2" d="M76.18,72.63c.76-.18,1.55.84,1.81,1.98.16.71.1,1.48-.35,1.95-8.38,8.96-16.15,16.15-21.18,17.48-2.07.55-3.21-.43-3.72-2.33-.66-2.33,2.88-18.07,5.26-26.03,4.98-16.85,10.4-28.64,12.62-29.15,1.51-.34,2.95,1.58,3.28,3.08.87,4.27-7.36,26.45-11.68,35.77-.81,2.61-2.19,8.83-2.58,12.55,6.02-3.81,11.08-9.17,15.55-14.4.69-.83.84-.87.99-.9Z"/>
    <path class="cls-2" d="M111.5,65.18c.69-.13,1.49,1.21,1.6,1.86.23,1.29.07,1.69-.8,2.52-8.75,8.57-16.47,15.18-21.55,16.27-1.64.35-2.43-.37-2.69-1.58-.33-1.5.2-3.78.81-5.7-4.27,6.52-8.42,9.87-12.07,10.73-3.79.9-4.62-.55-5.13-2.68-.56-2.34.62-7.89,3.45-15.74.38-1.14,1.6-1.79,2.9-2.09,2.22-.5,4.83.04,5.08,1.18.05.21.08.36-.1.99-.57,2.14-2.5,8.79-3.43,12.6,5.28-3.39,9.94-11.11,11.43-16.26.28-.95,1.16-1.73,2.54-2.02,2.3-.47,4.61-.49,4.86.73.04.21,0,.44-.02.67-1.01,3.7-2.32,8.14-3.01,12.38,7.84-4.47,15.36-13.72,16.15-13.86,0,0,0,0,0,0Z"/>
    <path class="cls-2" d="M118.41,60.84c4.01-.69,6.58.52,7.04,3.33.73,4.54-5.47,8.59-10.77,10.75.96,1.01,2.55,1.17,4.29.87,1.44-.25,2.97-.81,4.25-1.55,2-1.08,2.6-1.69,3.36-1.82.68-.11,1.28.23,1.45,1.24.15.94.08,1.47-.88,2.22-2.33,1.86-6.81,4.18-10.56,4.86-5.47.99-9.32-.42-10.35-5.72-1.21-6.17,5.9-13.1,12.17-14.17ZM119.41,65.7c-.12-.72-.68-1.22-1.53-1.07-2.38.41-4.19,3.12-4.07,6.8,4.4-1.69,5.85-4.22,5.59-5.73Z"/>
    <path class="cls-2" d="M146.18,71.13c-.05-.36.06-2.88.91-7.49,1.07-5.89,3.47-14.77,8.76-25.34.7-1.48,3.24-2.45,5.47-2.7,2.06-.24,3.87.08,3.98,1.1.02.22-.02.52-.23.83-2.63,4.47-5.31,10.22-7.57,16.23,19.19-7.52,28.96-19.06,28.45-25.43-.3-3.71-3.43-5.22-7.86-4.81-11.26,1.05-21,8.35-33.26,20.61-.28.26-.59.38-.9.42-1.18.16-2.55-1.05-2.72-2.28-.06-.43.04-.89.38-1.31,12.37-13.97,26.04-21.3,39.07-22.44,8.68-.76,14.58,2,15.05,8.91.65,9.66-11.91,20.15-32.93,28.42,3.99,5.34,8.59,9.91,13.38,14.05.42.4.61.75.65,1.11.11,1.09-1.32,2.11-2.91,2.28-.76.08-1.6.02-2.34-.42-5.51-2.86-10.83-7.61-16.09-13.35-1.62,5.2-2.88,10.38-3.57,15.03-.16,1.13-.63,1.63-1.23,1.71-1.58.21-4.09-2.39-4.48-5.14Z"/>
    <path class="cls-2" d="M210.31,53.5c.7-.04,1.32,1.39,1.35,2.05.07,1.31-.14,1.69-1.11,2.4-9.73,7.4-18.18,12.97-23.33,13.42-1.89.16-3.05-.76-3.24-2.94-.19-2.11,1.24-5.9,2.14-8.1.76-1.9,1.82-5.06,2.93-6.84.55-.92,1.52-1.51,2.84-1.62,1.48-.12,4.16.27,4.27,1.73.12,1.82-2.84,7.89-3.54,11.61,8.3-3.44,16.9-11.67,17.69-11.71,0,0,0,0,0,0ZM202.38,38.83c.2,3.28-3.33,7.16-6.6,7.4-2.27.16-3.94-1.17-4.13-3.57-.2-2.55,2.64-7.02,6.53-7.28,2.14-.15,4.06,1.2,4.2,3.45Z"/>
    <path class="cls-2" d="M242.88,52.62c.78-.01,1.41,1.22,1.42,2.39,0,.66-.22,1.32-.75,1.69-10.03,6.98-18.93,12.35-24.09,12.58-1.9.08-3.01-.89-3.11-3.07-.03-.58.02-1.24.21-1.98-3.29,3.44-7.03,5.77-10.07,5.95-3.41.21-5.4-1.04-5.61-4.18-.48-6.35,9.84-15.63,14.55-15.83,2.1-.1,3.02,1.18,3.06,2.2.15,3.71-6.19,6.86-9.45,7.56-.43.54-.68,1.57-.63,2.52.06,1.09.58,2.09,1.96,2.01,2.06-.12,7.09-3.73,8.83-6.57,3.41-9.72,21.11-41.82,26.13-41.8,1.54-.01,2.53,2.24,2.54,3.7-.09,3.91-14.59,27.38-21.38,36.86-.79,1.78-1.9,5.18-2.36,7.24,7.09-2.68,13.07-7.25,17.59-10.68.31-.22.61-.59,1.16-.6Z"/>
    <path class="cls-2" d="M274.67,53.29c.32-.21.63-.27.86-.27.93.03,1.51,1.43,1.48,2.45-.02.51-.1.87-.42,1.08-6.63,4.33-14.99,9.87-22.94,14.54-5.47,10.72-11.4,18.39-14.72,18.46-1.77.03-2.83-.82-2.88-2.93-.11-4.38,4.88-11.88,11-17.03.59-1.76,1.41-4.03,2.32-6.37-3.43,3.01-7.88,5.62-10.68,5.67-3.42.06-5.35-1.27-5.43-4.41-.21-6.37,10.48-15.2,15.19-15.2,2.1-.01,2.96,1.3,2.97,2.32,0,3.72-6.47,6.59-9.76,7.16-.45.52-.74,1.54-.73,2.49.02,1.09.49,2.11,1.87,2.09,2.06-.03,7.46-4.16,9.09-7.08.9-1.61,1.8-3.21,2.71-4.82.55-.95,1.64-1.38,2.96-1.38,1.48,0,4.12.62,4.1,2.08-.01,1.09-1.75,4.36-3.24,8.22-.55,1.46-1.09,2.84-1.71,4.15,7.03-3.77,14.31-8.8,17.96-11.25Z"/>
    <path class="cls-2" d="M283.41,49.85c4.05.16,6.31,1.88,6.18,4.72-.23,4.59-7.11,7.27-12.73,8.28.73,1.19,2.24,1.68,4,1.74,1.45.05,3.07-.18,4.46-.63,2.17-.64,2.89-1.12,3.65-1.08.69.03,1.2.49,1.16,1.52-.05.95-.22,1.45-1.32,1.98-2.66,1.34-7.51,2.67-11.3,2.56-5.54-.17-8.99-2.35-8.89-7.75.1-6.28,8.46-11.58,14.79-11.33ZM283.38,54.82c.03-.73-.41-1.33-1.27-1.36-2.4-.09-4.73,2.18-5.37,5.81,4.64-.73,6.58-2.91,6.64-4.45Z"/>
    <path class="cls-2" d="M310.37,36.49c.03-.44.23-.94.64-1.2,13.97-10.34,28.9-15.51,42.88-13.78,7.93.97,13.91,4.64,13.05,10.63-.94,6.52-13.43,14.16-31.22,19.11,1.91-.17,3.64-.2,5.12-.03,4.05.45,6.44,2.22,6.08,5.18-1.02,7.67-19.23,16.31-37.3,15.02-1.97-.14-2.62-.7-2.56-1.57.01-.15.22-1.01.62-2.23,2.79-8.66,11.28-23.69,17.9-31.95,1-1.3,3.76-1.71,6.07-1.48,2.15.21,3.99.99,3.89,2-.02.22-.12.43-.39.69-3.42,3.69-7.24,8.74-10.62,14.01,19.52-5.24,31.2-13,32.06-19.7.36-2.75-2.23-4.85-5.69-5.27-11.89-1.41-22.78,3.79-37.31,13.22-.33.19-.65.24-.97.22-1.18-.09-2.34-1.63-2.25-2.87ZM315.68,67.28c12.88-.41,20.91-6.67,21.33-10.38.15-1.38-.76-2.43-2.93-2.66-2.01-.21-5.12.29-9.33,1.95-.24.05-.4.11-.63.09-.85-.08-1.48-.87-1.87-1.78-2.83,4.66-5.21,9.23-6.57,12.78Z"/>
    <path class="cls-2" d="M363.61,61.97c.46-3.25,2.96-4.22,4.97-3.93,2.47.37,3.95,2.07,3.47,5.17-.15,1.01-.53,1.91-.99,2.88.45.14.98.22,1.52.31,3.29.51,6.7-.35,10.65-2.28,1.12-.55,1.28-.6,1.44-.57.54.09.61,1.07.44,2.07-.16.94-.56,1.9-1.08,2.19-3.19,1.68-7.8,3.14-12.73,2.38-.91-.14-1.88-.43-2.68-.78-3.62,3.81-9.4,6.66-14.53,5.99-5.13-.67-7.27-3.86-6.84-7.42.87-7.4,10.22-11.83,15.5-11.07.85.12,1.32.7,1.18,1.71-.13.94-.87,1.72-2.5,2.15-2.62.74-5.8,2.97-6.21,6.08-.22,1.67.65,3.32,2.54,3.58,2.89.39,5.29-1.33,7.19-3.64-1.05-1.33-1.6-3.03-1.34-4.84Z"/>
    <path class="cls-2" d="M420.2,70.27c.69.15.91,1.69.77,2.33-.28,1.28-.59,1.59-1.71,2.02-11.39,4.54-21.05,7.67-26.15,6.73-1.65-.3-2.09-1.27-1.87-2.5.27-1.51,1.63-3.41,2.93-4.95-6.44,4.38-11.54,5.88-15.23,5.27-3.83-.63-4.03-2.28-3.69-4.45.38-2.38,3.59-7.05,9.22-13.21.79-.9,2.16-1.04,3.47-.81,2.23.39,4.43,1.89,4.22,3.04-.04.22-.06.36-.47.88-1.35,1.76-5.68,7.15-8,10.31,6.16-1.1,13.43-6.43,16.78-10.62.62-.77,1.73-1.16,3.12-.89,2.31.45,4.45,1.32,4.2,2.54-.04.21-.16.41-.28.61-2.36,3.03-5.27,6.62-7.54,10.27,8.95-1.12,19.46-6.76,20.24-6.58,0,0,0,0,0,0Z"/>
    <path class="cls-2" d="M455.13,78.7c.68.18.83,1.73.66,2.37-.34,1.27-.66,1.56-1.8,1.94-11.61,4.01-21.42,6.69-26.49,5.52-1.86-.43-2.68-1.67-2.19-3.8.47-2.07,3.35-5.3,4.55-7.04-6.52,2.22-15.34,8.24-17.42,7.8-1.27-.27-3.62-2.1-3.37-3.31.49-2.36,4.76-7.97,10.68-13.86.83-.87,2.21-.94,3.51-.65,2.22.49,4.35,2.09,4.07,3.3-.03.14-.06.28-.82,1.16-1.1,1.32-4.45,4.54-6.12,6.41,6.73-4.06,15.08-7.72,17.99-7.02,1.45.35,2.78,2.18,2.43,3.6-.77,3.12-4.41,5.91-6.23,9.23,9.01-.7,19.79-5.85,20.57-5.64,0,0,0,0,0,0Z"/>
    <path class="cls-2" d="M462.19,68.8c.77-.7,1.97-.9,3.28-.54,1.38.38,3.91,1.69,3.57,2.89-.1.35-.6.97-1.55,1.99-1.37,1.38-2.74,2.77-4.1,4.16,1.74.48,3.49.97,5.23,1.46.61.17.83.54.69,1.03-.32,1.12-2.39,2.66-3.51,2.34-1.81-.51-3.62-1.01-5.43-1.5-2.77,3.03-5.52,6.37-6.58,8.58,6.54-.3,15.72-3.08,20.16-4.82.27-.07.51-.08.66-.03.68.2.78,1.22.47,2.27-.27.91-.84,1.73-1.56,1.98-11.73,3.7-21.87,5.91-26.92,4.6-1.85-.48-2.64-1.73-2.1-3.86.49-1.91,3.8-6.19,8-10.82-1.81-.48-3.63-.94-5.45-1.41-.76-.19-.99-.55-.86-1.05.28-1.13,2.54-2.67,3.53-2.42,1.98.51,3.95,1.02,5.93,1.55,2.13-2.23,4.44-4.41,6.54-6.41Z"/>
    <path class="cls-2" d="M492.03,100.28c.66.21.93,1.15.73,1.77-.41,1.25-.76,1.83-1.99,2.12-2.31.63-5.14,1.41-8.2,2.22-8.43,8.45-16.53,14.03-19.68,13.12-.93-.27-1.97-1.79-1.69-2.77,1.2-4.21,8.92-10.27,15.5-13.68,1.74-2.29,3.49-4.58,5.24-6.87-6.5,3.19-11.41,3.95-14.88,2.95-3.76-1.08-3.77-2.74-3.17-4.85.66-2.32,4.41-6.58,10.74-12.03.89-.8,2.28-.78,3.56-.4,2.19.65,4.21,2.41,3.85,3.59-.04.14-.09.28-.55.75-1.55,1.59-6.51,6.43-9.19,9.29,5.81-.35,12.62-3.74,16.63-7.3.34-.3.68-.6,1.03-.9.79-.67,1.99-.83,3.27-.42,1.43.45,3.8,1.83,3.34,3.22-.34,1.04-3,3.63-5.58,6.87-1.1,1.41-2.28,2.8-3.43,4.12,1.93-.46,3.74-1.03,4.48-.79Z"/>
  </g>
  <text class="cls-1" transform="translate(149.73 129.35)"><tspan x="0" y="0">Market</tspan></text>
  <g>
    <rect class="cls-2" x="337.33" y="110.14" width="75.07" height="5.71"/>
    <path class="cls-2" d="M426.22,112.85s-19.9,14.48-16.45,9.5,0-9.5,0-9.5c0,0,3.43-5.43,0-9.5s16.45,9.5,16.45,9.5Z"/>
  </g>
  <g>
    <rect class="cls-2" x="82.46" y="110.02" width="82.4" height="6.27"/>
    <polygon class="cls-2" points="80.5 100.41 89.29 110.83 86.67 113.04 76.14 100.56 80.5 100.41"/>
    <polygon class="cls-2" points="87.07 100.41 95.86 110.83 93.24 113.04 82.72 100.56 87.07 100.41"/>
    <polygon class="cls-2" points="93.64 100.41 102.43 110.83 99.82 113.04 89.29 100.56 93.64 100.41"/>
    <polygon class="cls-2" points="80.5 125.58 89.29 115.16 86.67 112.95 76.14 125.43 80.5 125.58"/>
    <polygon class="cls-2" points="87.07 125.58 95.86 115.16 93.24 112.95 82.72 125.43 87.07 125.58"/>
    <polygon class="cls-2" points="93.64 125.58 102.43 115.16 99.82 112.95 89.29 125.43 93.64 125.58"/>
  </g>
</svg>